# xmcd
#
# Track frame offsets: 
#        150
#        17850
#        35100
#        48975
#        60450
#        75600
#        90825
#        105225
#        124800
#        138525
#        151575
#
# Disc length: 2548 seconds
#
# Revision: 0
# Processed by: cddbd v1.5.2PL0 Copyright (c) Steve Scherf et al.
# Submitted via: ExactAudioCopyFreeDBPlugin 1.0
#
DISCID=7d09f20b
DTITLE=Climax Blues Band - The Climax Chicago Blues Band
DYEAR=1969
DGENRE=Blues
TTITLE0=Mean Old World
TTITLE1=Insurance
TTITLE2=Going Down This Road
TTITLE3=You've Been Drinking
TTITLE4=Don't Start Me Talkin'
TTITLE5=Wee Baby Blues
TTITLE6=Twenty Past One
TTITLE7=A Stranger In Your Town
TTITLE8=How Many Years
TTITLE9=Looking For My Baby
TTITLE10=And Lonely
EXTD=
EXTT0=
EXTT1=
EXTT2=
EXTT3=
EXTT4=
EXTT5=
EXTT6=
EXTT7=
EXTT8=
EXTT9=
EXTT10=
PLAYORDER=
